<svg width="20" height="20" viewBox="0 0 20 20" fill="none" xmlns="http://www.w3.org/2000/svg">
<path d="M15.8334 5.41668H13.3334V4.58334C13.3334 3.9203 13.07 3.28442 12.6012 2.81558C12.1323 2.34674 11.4965 2.08334 10.8334 2.08334H9.16675C8.50371 2.08334 7.86782 2.34674 7.39898 2.81558C6.93014 3.28442 6.66675 3.9203 6.66675 4.58334V5.41668H4.16675C3.50371 5.41668 2.86782 5.68007 2.39898 6.14891C1.93014 6.61775 1.66675 7.25364 1.66675 7.91668V15.4167C1.66675 16.0797 1.93014 16.7156 2.39898 17.1844C2.86782 17.6533 3.50371 17.9167 4.16675 17.9167H15.8334C16.4965 17.9167 17.1323 17.6533 17.6012 17.1844C18.07 16.7156 18.3334 16.0797 18.3334 15.4167V7.91668C18.3334 7.25364 18.07 6.61775 17.6012 6.14891C17.1323 5.68007 16.4965 5.41668 15.8334 5.41668ZM8.33341 4.58334C8.33341 4.36233 8.42121 4.15037 8.57749 3.99409C8.73377 3.83781 8.94573 3.75001 9.16675 3.75001H10.8334C11.0544 3.75001 11.2664 3.83781 11.4227 3.99409C11.579 4.15037 11.6667 4.36233 11.6667 4.58334V5.41668H8.33341V4.58334ZM16.6667 15.4167C16.6667 15.6377 16.579 15.8497 16.4227 16.0059C16.2664 16.1622 16.0544 16.25 15.8334 16.25H4.16675C3.94573 16.25 3.73377 16.1622 3.57749 16.0059C3.42121 15.8497 3.33341 15.6377 3.33341 15.4167V10.8333C5.4553 11.6751 7.71732 12.1077 10.0001 12.1083C12.2828 12.1069 14.5446 11.6744 16.6667 10.8333V15.4167ZM16.6667 9.00834C14.5654 9.93149 12.2953 10.4082 10.0001 10.4082C7.70491 10.4082 5.43475 9.93149 3.33341 9.00834V7.91668C3.33341 7.69566 3.42121 7.4837 3.57749 7.32742C3.73377 7.17114 3.94573 7.08334 4.16675 7.08334H15.8334C16.0544 7.08334 16.2664 7.17114 16.4227 7.32742C16.579 7.4837 16.6667 7.69566 16.6667 7.91668V9.00834Z" fill="#667085"/>
</svg>
