<svg width="20" height="20" viewBox="0 0 20 20" fill="none" xmlns="http://www.w3.org/2000/svg">
<path d="M10.0001 1.66666C5.40508 1.66666 1.66675 5.40499 1.66675 9.99999C1.66675 14.595 5.40508 18.3333 10.0001 18.3333C14.5951 18.3333 18.3334 14.595 18.3334 9.99999C18.3334 5.40499 14.5951 1.66666 10.0001 1.66666ZM10.0001 16.6667C6.32425 16.6667 3.33341 13.6758 3.33341 9.99999C3.33341 6.32416 6.32425 3.33332 10.0001 3.33332C13.6759 3.33332 16.6667 6.32416 16.6667 9.99999C16.6667 13.6758 13.6759 16.6667 10.0001 16.6667Z" fill="#667085"/>
<path d="M10.0001 9.16668C8.33341 9.16668 8.33341 8.64501 8.33341 8.33334C8.33341 7.93001 8.91758 7.50001 10.0001 7.50001C10.9876 7.50001 11.1551 8.03168 11.1667 8.34834L12.0001 8.33334H12.8334C12.8334 7.47834 12.2784 6.27584 10.8334 5.93418V5.01001H9.16675V5.90418C7.52425 6.18001 6.66675 7.26001 6.66675 8.33334C6.66675 9.26668 7.10008 10.8333 10.0001 10.8333C11.6667 10.8333 11.6667 11.3967 11.6667 11.6667C11.6667 12.0125 11.1501 12.5 10.0001 12.5C8.46591 12.5 8.34258 11.7858 8.33341 11.6667H6.66675C6.66675 12.4317 7.21758 13.7942 9.16675 14.1V15H10.8334V14.0958C12.4759 13.82 13.3334 12.74 13.3334 11.6667C13.3334 10.7333 12.9001 9.16668 10.0001 9.16668Z" fill="#667085"/>
</svg>
