<svg width="36" height="36" viewBox="0 0 36 36" fill="none" xmlns="http://www.w3.org/2000/svg">
<rect width="36" height="36" rx="12" fill="url(#paint0_linear_2116_4620)"/>
<path d="M18 19C17.7348 19 17.4804 18.8946 17.2929 18.7071C17.1054 18.5196 17 18.2652 17 18V14C17 13.7348 17.1054 13.4804 17.2929 13.2929C17.4804 13.1054 17.7348 13 18 13C18.2652 13 18.5196 13.1054 18.7071 13.2929C18.8946 13.4804 19 13.7348 19 14V18C19 18.2652 18.8946 18.5196 18.7071 18.7071C18.5196 18.8946 18.2652 19 18 19ZM18.38 22.92C18.1365 23.02 17.8635 23.02 17.62 22.92C17.4973 22.8724 17.3851 22.801 17.29 22.71C17.2017 22.6128 17.1306 22.5012 17.08 22.38C17.024 22.2613 16.9966 22.1312 17 22C16.9992 21.8684 17.0245 21.7379 17.0742 21.6161C17.124 21.4943 17.1973 21.3834 17.29 21.29C17.3872 21.2017 17.4988 21.1306 17.62 21.08C17.7715 21.0178 17.936 20.9937 18.099 21.0099C18.2619 21.0261 18.4184 21.0821 18.5547 21.1729C18.691 21.2638 18.8029 21.3867 18.8805 21.5309C18.9582 21.6751 18.9992 21.8362 19 22C18.9963 22.2648 18.8927 22.5184 18.71 22.71C18.6149 22.801 18.5028 22.8724 18.38 22.92ZM18 28C16.0222 28 14.0888 27.4135 12.4443 26.3147C10.7998 25.2159 9.51809 23.6541 8.76121 21.8268C8.00433 19.9996 7.8063 17.9889 8.19215 16.0491C8.578 14.1093 9.53041 12.3275 10.9289 10.9289C12.3275 9.53041 14.1093 8.578 16.0491 8.19215C17.9889 7.80629 19.9996 8.00433 21.8268 8.7612C23.6541 9.51808 25.2159 10.7998 26.3147 12.4443C27.4135 14.0888 28 16.0222 28 18C28 19.3132 27.7413 20.6136 27.2388 21.8268C26.7363 23.0401 25.9997 24.1425 25.0711 25.0711C24.1425 25.9997 23.0401 26.7362 21.8268 27.2388C20.6136 27.7413 19.3132 28 18 28V28ZM18 10C16.4178 10 14.871 10.4692 13.5554 11.3482C12.2398 12.2273 11.2145 13.4767 10.609 14.9385C10.0035 16.4003 9.84504 18.0089 10.1537 19.5607C10.4624 21.1126 11.2243 22.538 12.3432 23.6569C13.462 24.7757 14.8874 25.5376 16.4393 25.8463C17.9911 26.155 19.5997 25.9965 21.0615 25.391C22.5233 24.7855 23.7727 23.7602 24.6518 22.4446C25.5308 21.129 26 19.5823 26 18C26 15.8783 25.1572 13.8434 23.6569 12.3431C22.1566 10.8429 20.1217 10 18 10V10Z" fill="white"/>
<rect x="0.5" y="0.5" width="35" height="35" rx="11.5" stroke="black" stroke-opacity="0.1"/>
<defs>
<linearGradient id="paint0_linear_2116_4620" x1="36.1934" y1="23.85" x2="5.14336" y2="5.4" gradientUnits="userSpaceOnUse">
<stop stop-color="#FD7A01"/>
<stop offset="1" stop-color="#FDC500"/>
</linearGradient>
</defs>
</svg>
