<svg width="141" height="18" viewBox="0 0 141 18" fill="none" xmlns="http://www.w3.org/2000/svg">
<g clip-path="url(#clip0_7304_25124)">
<path d="M8.15082 11.1965C9.84838 15.3395 8.17507 17.5435 3.15866 17.5435H1.51136V17.1556C5.07272 16.8406 6.53469 15.0244 5.41223 12.2872L0.589844 0.586945H5.36373C9.26633 0.586945 10.5984 1.48377 11.9564 2.76667L27.3936 17.5435H23.3715L7.15827 2.01528C6.29218 1.1929 5.97 1.04747 5.33948 1.04747H3.98318L8.15082 11.1965ZM140.327 11.8336V0.8224H138.061V7.90176L133.182 0.8224H130.869V11.8336H133.15V4.77154L138.045 11.8336H140.327ZM122.984 9.88238C121.079 9.88238 119.537 8.40388 119.537 6.32799C119.537 4.25215 121.096 2.7736 122.984 2.7736C124.872 2.7736 126.431 4.25215 126.431 6.32799C126.431 8.40388 124.872 9.88238 122.984 9.88238ZM122.984 12.0691C126.275 12.0691 128.839 9.48936 128.839 6.32799C128.839 3.16661 126.273 0.586945 122.984 0.586945C119.695 0.586945 117.129 3.16661 117.129 6.32799C117.129 9.48936 119.679 12.0691 122.984 12.0691ZM115.016 0.815482H112.645V11.8266H115.021L115.016 0.815482ZM107.588 11.8266V2.99348H111.002V0.8224H101.77V2.99348H105.186V11.8336L107.588 11.8266ZM95.5652 7.37544L97.0445 3.44189L98.5238 7.37544H95.5652ZM102.726 11.8266L98.4685 0.8224H95.7126L91.4463 11.8336H93.8871L94.7667 9.48936H99.3348L100.216 11.8336L102.726 11.8266ZM89.967 0.8224H87.5917V11.8336H89.967V0.8224ZM74.9541 0.8224L79.2189 11.8336H81.8484L86.1124 0.8224H83.6412L80.5735 8.95961L77.5091 0.8224H74.9541ZM68.9122 7.38236L70.3915 3.44881L71.8708 7.38236H68.9122ZM76.0713 11.8336L71.8067 0.8224H69.0525L64.7879 11.8336H67.2268L68.1085 9.48936H72.6728L73.5545 11.8336H76.0713ZM59.3592 11.8336V2.99348H62.7734V0.8224H53.5357V2.99348H56.9516V11.8336H59.3592ZM52.214 11.8336V9.66255H46.723V7.30272H51.6631V5.19571H46.723V2.99348H52.2192V0.8224H44.3309V11.8336H52.214ZM33.9447 7.9329C34.0227 10.5126 35.5799 12.0691 38.1019 12.0691C40.5564 12.0691 42.3042 10.355 42.3042 7.96405V0.8224H39.9086V7.96405C39.9086 9.11198 39.1689 9.88238 38.0985 9.88238C37.028 9.88238 36.3836 9.18985 36.3195 7.9329H33.9447ZM35.741 14.8028L33.943 17.5435H34.9823L35.2975 17.0241H37.4264L37.7729 17.5435H38.8711L37.0799 14.8028H35.741ZM35.6855 16.361L36.3542 15.291H36.3853L37.0609 16.361H35.6855ZM40.7868 16.1792C40.7868 17.0102 41.4572 17.5521 42.2592 17.5521H44.7414V15.852H42.8533V16.4545H43.8302V16.8942H42.519C42.086 16.8942 41.7101 16.6449 41.7101 16.1792C41.7101 15.7134 42.086 15.4693 42.519 15.4693H44.7432V14.8114H42.2557C41.4485 14.8028 40.7868 15.3412 40.7868 16.1792ZM45.4932 17.5521H48.6509V16.8942H46.3991V16.4545H48.6509V15.852H46.3991V15.4676H48.6509V14.8114H45.4897L45.4932 17.5521ZM52.2486 16.5929H52.233L50.5858 14.8114H49.3247V17.5521H50.1908V15.6477H50.2013L51.9888 17.5521H53.0853V14.8028H52.2573L52.2486 16.5929ZM53.8284 17.5521H56.9862V16.8942H54.7343V16.4545H56.9862V15.852H54.7343V15.4676H56.9862V14.8114H53.8284V17.5521ZM61.4102 15.762C61.4102 15.0885 60.8455 14.8114 60.2427 14.8114H57.6617V17.5521H58.5693V16.6865H59.7057L60.3258 17.5521H61.3651C61.1278 17.2405 60.8887 16.9271 60.6567 16.612C61.0966 16.5012 61.4102 16.2433 61.4102 15.7533V15.762ZM60.0591 16.077H58.5693V15.4174H60.0591C60.2704 15.4174 60.4662 15.5092 60.4662 15.7464C60.4662 15.9835 60.2652 16.0684 60.0591 16.0684V16.077ZM63.4333 14.8114L61.6353 17.5521H62.6746L62.9899 17.0327H65.1222L65.4687 17.5521H66.5669L64.7757 14.8114H63.4333ZM63.3779 16.3697L64.0466 15.2997H64.076L64.755 16.3697H63.3779ZM67.84 14.8114H66.9324V17.5521H70.071V16.8942H67.84V14.8114ZM74.9714 14.8114H72.3644V17.5521H74.9714C75.7699 17.5521 76.4385 17.0102 76.4385 16.1826C76.4385 15.3551 75.7769 14.8028 74.9714 14.8028V14.8114ZM74.7081 16.889H73.2721V15.4642H74.7081C75.1429 15.4642 75.5205 15.7117 75.5205 16.1775C75.5205 16.6432 75.1429 16.8856 74.7081 16.8856V16.889ZM78.7963 15.8952L77.6822 14.8028H76.5148L78.2886 16.5947V17.5435H79.1924V16.5895L80.9735 14.8028H79.8888L78.7963 15.8952ZM84.2799 16.5878H84.2643L82.6173 14.8062H81.3564V17.5469H82.222V15.6425H82.2329L84.0202 17.5469H85.1049V14.8028H84.2768L84.2799 16.5878ZM87.2821 14.8062L85.4769 17.5435H86.5164L86.8337 17.0241H88.9657L89.312 17.5435H90.4099L88.6195 14.8028L87.2821 14.8062ZM87.2268 16.3644L87.8951 15.2945H87.9262L88.6039 16.3644H87.2268ZM93.289 16.7229H93.2648L92.2253 14.7976H90.7827V17.5383H91.649V15.4607H91.6763L92.8219 17.5383H93.6999L94.8743 15.4607H94.8969V17.5383H95.7524V14.8028H94.3113L93.289 16.7229ZM96.5041 17.5383H97.4118V14.8028H96.5041V17.5383ZM98.013 16.1688C98.013 16.9964 98.6829 17.5383 99.4853 17.5383H101.737V16.8804H99.7419C99.3067 16.8804 98.9309 16.6311 98.9309 16.1688C98.9309 15.7066 99.3067 15.4555 99.7419 15.4555H101.728V14.7976H99.4767C98.6743 14.8028 98.0091 15.3412 98.0091 16.1792L98.013 16.1688ZM105.115 15.8035H103.469C103.355 15.8035 103.237 15.7516 103.237 15.6165C103.237 15.4815 103.346 15.4278 103.469 15.4278H105.934V14.7976H103.18C102.961 14.8075 102.754 14.9015 102.602 15.06C102.451 15.2184 102.366 15.4293 102.366 15.6486C102.366 15.8678 102.451 16.0786 102.602 16.2371C102.754 16.3956 102.961 16.4896 103.18 16.4995H104.824C104.966 16.4995 105.109 16.5341 105.109 16.702C105.109 16.87 104.964 16.9064 104.824 16.9064H102.378V17.5383H105.113C105.342 17.5383 105.563 17.4471 105.725 17.2847C105.888 17.1224 105.979 16.9022 105.979 16.6726C105.979 16.443 105.888 16.2228 105.725 16.0605C105.563 15.8981 105.342 15.807 105.113 15.807L105.115 15.8035ZM108.168 16.1792C108.168 17.0068 108.838 17.5487 109.638 17.5487H111.89V16.8907H109.901C109.468 16.8907 109.09 16.6415 109.09 16.1792C109.09 15.7169 109.468 15.4659 109.901 15.4659H111.886V14.808H109.634C108.839 14.8028 108.168 15.3412 108.168 16.1792ZM115.113 14.808H113.807C113.002 14.808 112.334 15.3464 112.334 16.1792C112.334 17.012 113.005 17.5487 113.807 17.5487H115.113C115.917 17.5487 116.587 17.0137 116.587 16.1792C116.587 15.3447 115.922 14.8028 115.118 14.8028L115.113 14.808ZM114.876 16.8856H114.086C113.653 16.8856 113.273 16.6415 113.273 16.174C113.273 15.7066 113.649 15.4607 114.086 15.4607H114.876C115.308 15.4607 115.688 15.7083 115.688 16.174C115.688 16.6397 115.314 16.8856 114.881 16.8856H114.876ZM119.693 16.728H119.671L118.631 14.8028H117.19V17.5435H118.056V15.4659H118.082L119.23 17.5435H120.107L121.283 15.4659H121.304V17.5435H122.17V14.8028H120.739L119.693 16.728ZM125.539 14.8028H122.915V17.5435H123.821V16.6778H125.544C126.171 16.6778 126.662 16.4147 126.662 15.736C126.662 15.0573 126.171 14.8028 125.544 14.8028H125.539ZM125.35 16.0684H123.815V15.4174H125.35C125.565 15.4174 125.727 15.5126 125.727 15.7464C125.727 15.9801 125.57 16.0684 125.355 16.0684H125.35ZM128.229 14.8028L126.431 17.5435H127.47L127.785 17.0241H129.92L130.257 17.5435H131.355L129.566 14.8028H128.229ZM128.172 16.361L128.842 15.291H128.872L129.549 16.361H128.172ZM134.652 16.5756H134.637L132.987 14.7941H131.726V17.5348H132.592V15.6303H132.604L134.392 17.5348H135.475V14.8028H134.648L134.652 16.5756ZM139.237 14.7941L138.136 15.8918L137.021 14.8028H135.855L137.631 16.5947V17.5435H138.534V16.5895L140.321 14.8028L139.237 14.7941Z" fill="#041E42"/>
</g>
<defs>
<clipPath id="clip0_7304_25124">
<rect width="140.365" height="18" fill="white"/>
</clipPath>
</defs>
</svg>
