<svg width="250" height="250" viewBox="0 0 250 250" fill="none" xmlns="http://www.w3.org/2000/svg">
<g clip-path="url(#clip0_1591_4025)">
<path d="M125.034 108.619C103.131 108.619 85.1046 126.646 85.1046 148.549C85.1046 170.452 103.131 188.478 125.034 188.478C146.937 188.478 164.878 170.452 164.878 148.549C164.878 126.646 146.937 108.619 125.034 108.619ZM125.034 131.79C134.418 131.79 141.707 139.165 141.707 148.549C141.707 157.932 134.418 165.307 125.034 165.307C115.65 165.307 108.276 157.932 108.276 148.549C108.276 139.165 115.65 131.79 125.034 131.79Z" fill="#1EAAE2"/>
<path d="M50.3043 66.8093C28.4012 66.8093 10.4604 84.8356 10.4604 106.739C10.4604 128.642 28.4012 146.668 50.3043 146.668C72.2074 146.668 90.2336 128.642 90.2336 106.739C90.2336 84.8356 72.2074 66.8093 50.3043 66.8093ZM50.3043 89.9803C59.6879 89.9803 67.0626 97.355 67.0626 106.739C67.0626 116.122 59.6879 123.497 50.3043 123.497C40.9206 123.497 33.6314 116.122 33.6314 106.739C33.6314 97.355 40.9206 89.9803 50.3043 89.9803Z" fill="#6EC8C2"/>
<path d="M200.961 66.8093C179.058 66.8093 161.032 84.8356 161.032 106.739C161.032 128.642 179.058 146.668 200.961 146.668C222.864 146.668 240.805 128.642 240.805 106.739C240.805 84.8356 222.864 66.8093 200.961 66.8093ZM200.961 89.9803C210.345 89.9803 217.634 97.355 217.634 106.739C217.634 116.122 210.345 123.497 200.961 123.497C191.578 123.497 184.203 116.122 184.203 106.739C184.203 97.355 191.578 89.9803 200.961 89.9803Z" fill="#0373B7"/>
</g>
<defs>
<clipPath id="clip0_1591_4025">
<rect width="234.375" height="125.44" fill="white" transform="translate(7.8125 62.5)"/>
</clipPath>
</defs>
</svg>
