<svg width="20" height="20" viewBox="0 0 20 20" fill="none" xmlns="http://www.w3.org/2000/svg">
<path d="M15.832 9.16659H10.832V4.16659C10.832 3.94557 10.7442 3.73361 10.588 3.57733C10.4317 3.42105 10.2197 3.33325 9.9987 3.33325C9.77768 3.33325 9.56572 3.42105 9.40944 3.57733C9.25316 3.73361 9.16536 3.94557 9.16536 4.16659V9.16659H4.16536C3.94435 9.16659 3.73239 9.25438 3.57611 9.41066C3.41983 9.56694 3.33203 9.7789 3.33203 9.99992C3.33203 10.2209 3.41983 10.4329 3.57611 10.5892C3.73239 10.7455 3.94435 10.8333 4.16536 10.8333H9.16536V15.8333C9.16536 16.0543 9.25316 16.2662 9.40944 16.4225C9.56572 16.5788 9.77768 16.6666 9.9987 16.6666C10.2197 16.6666 10.4317 16.5788 10.588 16.4225C10.7442 16.2662 10.832 16.0543 10.832 15.8333V10.8333H15.832C16.053 10.8333 16.265 10.7455 16.4213 10.5892C16.5776 10.4329 16.6654 10.2209 16.6654 9.99992C16.6654 9.7789 16.5776 9.56694 16.4213 9.41066C16.265 9.25438 16.053 9.16659 15.832 9.16659Z" fill="#667085"/>
</svg>
