<svg width="188" height="28" viewBox="0 0 188 28" fill="none" xmlns="http://www.w3.org/2000/svg">
<g clip-path="url(#clip0_7125_9832)">
<path d="M24.2957 10.5591C19.7558 10.5591 16.0195 14.2954 16.0195 18.8353C16.0195 23.3751 19.7558 27.1114 24.2957 27.1114C28.8356 27.1114 32.5541 23.3751 32.5541 18.8353C32.5541 14.2954 28.8356 10.5591 24.2957 10.5591ZM24.2957 15.3617C26.2406 15.3617 27.7515 16.8903 27.7515 18.8353C27.7515 20.7802 26.2406 22.3088 24.2957 22.3088C22.3508 22.3088 20.8222 20.7802 20.8222 18.8353C20.8222 16.8903 22.3508 15.3617 24.2957 15.3617Z" fill="#1EAAE2"/>
<path d="M8.80532 1.89307C4.26546 1.89307 0.546875 5.62938 0.546875 10.1692C0.546875 14.7091 4.26546 18.4454 8.80532 18.4454C13.3452 18.4454 17.0815 14.7091 17.0815 10.1692C17.0815 5.62938 13.3452 1.89307 8.80532 1.89307ZM8.80532 6.69573C10.7503 6.69573 12.2788 8.22429 12.2788 10.1692C12.2788 12.1142 10.7503 13.6427 8.80532 13.6427C6.86037 13.6427 5.34953 12.1142 5.34953 10.1692C5.34953 8.22429 6.86037 6.69573 8.80532 6.69573Z" fill="#6EC8C2"/>
<path d="M40.034 1.89307C35.4941 1.89307 31.7578 5.62938 31.7578 10.1692C31.7578 14.7091 35.4941 18.4454 40.034 18.4454C44.5738 18.4454 48.2924 14.7091 48.2924 10.1692C48.2924 5.62938 44.5738 1.89307 40.034 1.89307ZM40.034 6.69573C41.9789 6.69573 43.4898 8.22429 43.4898 10.1692C43.4898 12.1142 41.9789 13.6427 40.034 13.6427C38.089 13.6427 36.5605 12.1142 36.5605 10.1692C36.5605 8.22429 38.089 6.69573 40.034 6.69573Z" fill="#0373B7"/>
</g>
<path d="M69.1679 26.7545L69.1372 21.8599L66.8049 25.7879H65.2092L62.877 22.0287V26.7545H59.5781V16.0141H62.5548L66.0531 21.7372L69.4594 16.0141H72.436L72.4667 26.7545H69.1679Z" fill="#5D6065"/>
<path d="M81.9625 24.8826H77.8811L77.16 26.7545H73.4775L78.1727 16.0141H81.7324L86.4275 26.7545H82.6837L81.9625 24.8826ZM80.9652 22.2742L79.9218 19.5738L78.8785 22.2742H80.9652Z" fill="#5D6065"/>
<path d="M92.0347 24.0541H91.0527V26.7545H87.4316V16.0141H92.6024C93.5946 16.0141 94.459 16.1777 95.1955 16.505C95.932 16.8324 96.4997 17.3029 96.8986 17.9167C97.2975 18.5304 97.497 19.2464 97.497 20.0648C97.497 20.8319 97.3231 21.5019 96.9753 22.0748C96.6275 22.6476 96.1263 23.1028 95.4716 23.4403L97.7271 26.7545H93.8606L92.0347 24.0541ZM93.8452 20.0648C93.8452 19.6658 93.7225 19.3589 93.477 19.1441C93.2315 18.9191 92.8632 18.8066 92.3722 18.8066H91.0527V21.3229H92.3722C92.8632 21.3229 93.2315 21.2155 93.477 21.0007C93.7225 20.7757 93.8452 20.4637 93.8452 20.0648Z" fill="#5D6065"/>
<path d="M103.663 23.1948L102.85 24.1001V26.7545H99.2906V16.0141H102.85V19.9113L106.379 16.0141H110.323L106.026 20.7399L110.537 26.7545H106.349L103.663 23.1948Z" fill="#5D6065"/>
<path d="M120.379 24.0234V26.7545H111.449V16.0141H120.18V18.7452H115.009V20.0034H119.551V22.6118H115.009V24.0234H120.379Z" fill="#5D6065"/>
<path d="M124.532 18.8219H121.386V16.0141H131.298V18.8219H128.153V26.7545H124.532V18.8219Z" fill="#5D6065"/>
<path d="M137.836 16.0141C138.828 16.0141 139.692 16.1777 140.429 16.505C141.165 16.8324 141.733 17.3029 142.132 17.9167C142.531 18.5304 142.73 19.2464 142.73 20.0648C142.73 20.8831 142.531 21.5991 142.132 22.2129C141.733 22.8266 141.165 23.2971 140.429 23.6245C139.692 23.9518 138.828 24.1155 137.836 24.1155H136.286V26.7545H132.665V16.0141H137.836ZM137.605 21.3229C138.096 21.3229 138.465 21.2155 138.71 21.0007C138.956 20.7757 139.078 20.4637 139.078 20.0648C139.078 19.6658 138.956 19.3589 138.71 19.1441C138.465 18.9191 138.096 18.8066 137.605 18.8066H136.286V21.3229H137.605Z" fill="#5D6065"/>
<path d="M144.344 16.0141H147.965V23.9467H152.814V26.7545H144.344V16.0141Z" fill="#5D6065"/>
<path d="M161.709 24.8826H157.627L156.906 26.7545H153.224L157.919 16.0141H161.479L166.174 26.7545H162.43L161.709 24.8826ZM160.711 22.2742L159.668 19.5738L158.625 22.2742H160.711Z" fill="#5D6065"/>
<path d="M172.582 27C171.447 27 170.424 26.7648 169.514 26.2942C168.603 25.8135 167.887 25.1486 167.366 24.2996C166.854 23.4403 166.598 22.4686 166.598 21.3843C166.598 20.3 166.854 19.3334 167.366 18.4844C167.887 17.6251 168.603 16.9602 169.514 16.4897C170.424 16.0089 171.447 15.7686 172.582 15.7686C173.626 15.7686 174.557 15.9527 175.375 16.3209C176.193 16.6892 176.868 17.2211 177.4 17.9167L175.114 19.9573C174.449 19.1186 173.667 18.6992 172.767 18.6992C172.01 18.6992 171.401 18.9447 170.941 19.4357C170.48 19.9164 170.25 20.566 170.25 21.3843C170.25 22.2026 170.48 22.8573 170.941 23.3483C171.401 23.829 172.01 24.0694 172.767 24.0694C173.667 24.0694 174.449 23.65 175.114 22.8112L177.4 24.8519C176.868 25.5475 176.193 26.0794 175.375 26.4477C174.557 26.8159 173.626 27 172.582 27Z" fill="#5D6065"/>
<path d="M187.802 24.0234V26.7545H178.872V16.0141H187.602V18.7452H182.432V20.0034H186.973V22.6118H182.432V24.0234H187.802Z" fill="#5D6065"/>
<path d="M64.3529 11.9594C63.4494 11.9594 62.5666 11.8607 61.7046 11.6634C60.853 11.4557 60.152 11.1805 59.6016 10.8377L60.7855 8.1583C61.3048 8.45947 61.8864 8.70353 62.5303 8.89047C63.1742 9.06702 63.7921 9.1553 64.3841 9.1553C64.8929 9.1553 65.2564 9.10857 65.4745 9.0151C65.6926 8.91124 65.8017 8.76065 65.8017 8.56333C65.8017 8.33485 65.6563 8.16349 65.3655 8.04925C65.0851 7.93501 64.6177 7.81038 63.9634 7.67537C63.1222 7.49882 62.4212 7.31188 61.8604 7.11456C61.2996 6.90685 60.8115 6.57452 60.396 6.11756C59.9806 5.65021 59.7729 5.02189 59.7729 4.2326C59.7729 3.54716 59.9651 2.92403 60.3493 2.36322C60.7336 1.80241 61.3048 1.36102 62.0629 1.03907C62.8314 0.717127 63.7609 0.556152 64.8514 0.556152C65.5992 0.556152 66.3313 0.639236 67.0479 0.805403C67.7749 0.961184 68.4136 1.19486 68.964 1.50642L67.858 4.17029C66.7883 3.63024 65.7757 3.36022 64.8202 3.36022C63.8752 3.36022 63.4026 3.5887 63.4026 4.04566C63.4026 4.26376 63.5428 4.42992 63.8232 4.54416C64.1037 4.64802 64.5658 4.76226 65.2097 4.88688C66.0405 5.04266 66.7416 5.22441 67.3128 5.43212C67.884 5.62944 68.3773 5.95658 68.7927 6.41354C69.2185 6.8705 69.4314 7.49363 69.4314 8.28292C69.4314 8.96836 69.2393 9.59149 68.855 10.1523C68.4707 10.7027 67.8943 11.1441 67.1258 11.4764C66.3677 11.7984 65.4434 11.9594 64.3529 11.9594Z" fill="#5D6065"/>
<path d="M72.7411 3.65621H69.5476V0.805403H79.6111V3.65621H76.4176V11.7101H72.7411V3.65621Z" fill="#5D6065"/>
<path d="M87.4491 9.80958H83.3053L82.5731 11.7101H78.8344L83.6013 0.805403H87.2154L91.9824 11.7101H88.1813L87.4491 9.80958ZM86.4365 7.16129L85.3772 4.41954L84.3179 7.16129H86.4365Z" fill="#5D6065"/>
<path d="M96.2455 3.57832V5.4477H100.794V8.22061H96.2455V11.7101H92.5691V0.805403H101.433V3.57832H96.2455Z" fill="#5D6065"/>
<path d="M106.271 3.57832V5.4477H110.82V8.22061H106.271V11.7101H102.594V0.805403H111.458V3.57832H106.271Z" fill="#5D6065"/>
<path d="M112.62 0.805403H116.296V11.7101H112.62V0.805403Z" fill="#5D6065"/>
<path d="M128.815 0.805403V11.7101H125.793L121.649 6.75626V11.7101H118.066V0.805403H121.088L125.232 5.75926V0.805403H128.815Z" fill="#5D6065"/>
<path d="M137.799 5.96178H140.993V10.5729C140.349 11.0195 139.601 11.3622 138.749 11.6011C137.898 11.8399 137.062 11.9594 136.241 11.9594C135.078 11.9594 134.034 11.7205 133.11 11.2428C132.186 10.7547 131.459 10.0796 130.929 9.21761C130.41 8.34523 130.15 7.35862 130.15 6.25776C130.15 5.1569 130.41 4.17548 130.929 3.31349C131.459 2.44111 132.191 1.76606 133.126 1.28833C134.071 0.80021 135.135 0.556152 136.319 0.556152C137.389 0.556152 138.344 0.737897 139.186 1.10139C140.037 1.45449 140.743 1.97377 141.304 2.6592L138.952 4.7311C138.267 3.93142 137.451 3.53158 136.506 3.53158C135.696 3.53158 135.052 3.77564 134.575 4.26376C134.097 4.75187 133.858 5.41654 133.858 6.25776C133.858 7.07821 134.092 7.73769 134.559 8.23619C135.037 8.73469 135.67 8.98394 136.459 8.98394C136.927 8.98394 137.373 8.89566 137.799 8.71911V5.96178Z" fill="#5D6065"/>
<defs>
<clipPath id="clip0_7125_9832">
<rect width="48.5789" height="26" fill="white" transform="translate(0 1)"/>
</clipPath>
</defs>
</svg>
