<svg width="129" height="27" viewBox="0 0 129 27" fill="none" xmlns="http://www.w3.org/2000/svg">
<path d="M10.1687 26.7545L10.138 21.8599L7.80577 25.7879H6.21004L3.87782 22.0287V26.7545H0.578949V16.014H3.5556L7.05393 21.7372L10.4602 16.014H13.4369L13.4675 26.7545H10.1687Z" fill="#5D6065"/>
<path d="M22.9634 24.8826H18.882L18.1608 26.7545H14.4784L19.1735 16.014H22.7332L27.4283 26.7545H23.6845L22.9634 24.8826ZM21.966 22.2742L20.9227 19.5737L19.8793 22.2742H21.966Z" fill="#5D6065"/>
<path d="M33.0355 24.054H32.0535V26.7545H28.4324V16.014H33.6032C34.5954 16.014 35.4598 16.1777 36.1963 16.505C36.9328 16.8323 37.5005 17.3029 37.8994 17.9166C38.2984 18.5304 38.4978 19.2464 38.4978 20.0647C38.4978 20.8319 38.3239 21.5019 37.9761 22.0747C37.6284 22.6475 37.1271 23.1027 36.4725 23.4403L38.728 26.7545H34.8614L33.0355 24.054ZM34.8461 20.0647C34.8461 19.6658 34.7233 19.3589 34.4778 19.1441C34.2323 18.9191 33.8641 18.8065 33.3731 18.8065H32.0535V21.3229H33.3731C33.8641 21.3229 34.2323 21.2155 34.4778 21.0007C34.7233 20.7756 34.8461 20.4636 34.8461 20.0647Z" fill="#5D6065"/>
<path d="M44.6643 23.1948L43.8511 24.1001V26.7545H40.2914V16.014H43.8511V19.9113L47.3801 16.014H51.3234L47.0272 20.7398L51.5382 26.7545H47.3494L44.6643 23.1948Z" fill="#5D6065"/>
<path d="M61.38 24.0233V26.7545H52.4501V16.014H61.1805V18.7452H56.0098V20.0033H60.5514V22.6117H56.0098V24.0233H61.38Z" fill="#5D6065"/>
<path d="M65.5324 18.8219H62.387V16.014H72.2989V18.8219H69.1535V26.7545H65.5324V18.8219Z" fill="#5D6065"/>
<path d="M78.8364 16.014C79.8287 16.014 80.693 16.1777 81.4295 16.505C82.166 16.8323 82.7337 17.3029 83.1326 17.9166C83.5316 18.5304 83.731 19.2464 83.731 20.0647C83.731 20.883 83.5316 21.5991 83.1326 22.2128C82.7337 22.8266 82.166 23.2971 81.4295 23.6244C80.693 23.9517 79.8287 24.1154 78.8364 24.1154H77.2867V26.7545H73.6657V16.014H78.8364ZM78.6063 21.3229C79.0973 21.3229 79.4655 21.2155 79.711 21.0007C79.9565 20.7756 80.0793 20.4636 80.0793 20.0647C80.0793 19.6658 79.9565 19.3589 79.711 19.1441C79.4655 18.9191 79.0973 18.8065 78.6063 18.8065H77.2867V21.3229H78.6063Z" fill="#5D6065"/>
<path d="M85.3448 16.014H88.9659V23.9466H93.8145V26.7545H85.3448V16.014Z" fill="#5D6065"/>
<path d="M102.71 24.8826H98.6282L97.9071 26.7545H94.2246L98.9197 16.014H102.479L107.175 26.7545H103.431L102.71 24.8826ZM101.712 22.2742L100.669 19.5737L99.6255 22.2742H101.712Z" fill="#5D6065"/>
<path d="M113.583 27C112.448 27 111.425 26.7647 110.515 26.2942C109.604 25.8134 108.888 25.1485 108.366 24.2995C107.855 23.4403 107.599 22.4685 107.599 21.3843C107.599 20.3 107.855 19.3333 108.366 18.4843C108.888 17.6251 109.604 16.9602 110.515 16.4897C111.425 16.0089 112.448 15.7685 113.583 15.7685C114.627 15.7685 115.557 15.9526 116.376 16.3209C117.194 16.6891 117.869 17.221 118.401 17.9166L116.115 19.9573C115.45 19.1185 114.667 18.6991 113.767 18.6991C113.01 18.6991 112.402 18.9446 111.941 19.4356C111.481 19.9164 111.251 20.5659 111.251 21.3843C111.251 22.2026 111.481 22.8572 111.941 23.3482C112.402 23.829 113.01 24.0694 113.767 24.0694C114.667 24.0694 115.45 23.65 116.115 22.8112L118.401 24.8519C117.869 25.5475 117.194 26.0794 116.376 26.4476C115.557 26.8159 114.627 27 113.583 27Z" fill="#5D6065"/>
<path d="M128.803 24.0233V26.7545H119.873V16.014H128.603V18.7452H123.433V20.0033H127.974V22.6117H123.433V24.0233H128.803Z" fill="#5D6065"/>
<path d="M5.35275 11.9592C4.44922 11.9592 3.56645 11.8606 2.70446 11.6633C1.85286 11.4556 1.15184 11.1803 0.60141 10.8376L1.78535 8.15817C2.30462 8.45935 2.88621 8.70341 3.5301 8.89035C4.174 9.0669 4.79194 9.15518 5.38391 9.15518C5.89279 9.15518 6.25628 9.10844 6.47438 9.01497C6.69247 8.91112 6.80152 8.76053 6.80152 8.56321C6.80152 8.33473 6.65612 8.16337 6.36533 8.04913C6.08492 7.93489 5.61758 7.81026 4.9633 7.67525C4.12208 7.4987 3.42106 7.31176 2.86024 7.11444C2.29943 6.90673 1.81131 6.57439 1.3959 6.11743C0.980479 5.65009 0.77277 5.02177 0.77277 4.23248C0.77277 3.54704 0.9649 2.92391 1.34916 2.3631C1.73342 1.80228 2.30462 1.3609 3.06276 1.03895C3.83128 0.717004 4.76078 0.55603 5.85125 0.55603C6.599 0.55603 7.33118 0.639114 8.04777 0.80528C8.77475 0.961062 9.41346 1.19473 9.96389 1.5063L8.85784 4.17016C7.78814 3.63012 6.77556 3.3601 5.8201 3.3601C4.87502 3.3601 4.40248 3.58858 4.40248 4.04554C4.40248 4.26363 4.54269 4.4298 4.82309 4.54404C5.1035 4.64789 5.56565 4.76214 6.20955 4.88676C7.04038 5.04254 7.7414 5.22429 8.3126 5.432C8.8838 5.62932 9.37711 5.95646 9.79253 6.41342C10.2183 6.87038 10.4312 7.49351 10.4312 8.2828C10.4312 8.96824 10.2391 9.59137 9.85484 10.1522C9.47058 10.7026 8.89419 11.144 8.12566 11.4763C7.36753 11.7983 6.44322 11.9592 5.35275 11.9592Z" fill="#5D6065"/>
<path d="M13.741 3.65609H10.5475V0.80528H20.611V3.65609H17.4174V11.71H13.741V3.65609Z" fill="#5D6065"/>
<path d="M28.449 9.80946H24.3052L23.573 11.71H19.8342L24.6012 0.80528H28.2153L32.9822 11.71H29.1811L28.449 9.80946ZM27.4364 7.16117L26.3771 4.41941L25.3177 7.16117H27.4364Z" fill="#5D6065"/>
<path d="M37.2454 3.57819V5.44757H41.7942V8.22049H37.2454V11.71H33.5689V0.80528H42.4329V3.57819H37.2454Z" fill="#5D6065"/>
<path d="M47.2708 3.57819V5.44757H51.8196V8.22049H47.2708V11.71H43.5943V0.80528H52.4583V3.57819H47.2708Z" fill="#5D6065"/>
<path d="M53.6197 0.80528H57.2962V11.71H53.6197V0.80528Z" fill="#5D6065"/>
<path d="M69.8149 0.80528V11.71H66.7928L62.649 6.75614V11.71H59.066V0.80528H62.0882L66.232 5.75914V0.80528H69.8149Z" fill="#5D6065"/>
<path d="M78.799 5.96165H81.9926V10.5728C81.3487 11.0194 80.6009 11.3621 79.7493 11.6009C78.8977 11.8398 78.0617 11.9592 77.2412 11.9592C76.0781 11.9592 75.0343 11.7204 74.11 11.2427C73.1857 10.7545 72.4587 10.0795 71.9291 9.21749C71.4098 8.34511 71.1502 7.3585 71.1502 6.25764C71.1502 5.15678 71.4098 4.17536 71.9291 3.31337C72.4587 2.44099 73.1909 1.76593 74.1256 1.2882C75.0707 0.800088 76.1352 0.55603 77.3191 0.55603C78.3888 0.55603 79.3443 0.737775 80.1855 1.10127C81.0371 1.45437 81.7433 1.97364 82.3041 2.65908L79.9518 4.73098C79.2664 3.9313 78.4511 3.53146 77.5061 3.53146C76.696 3.53146 76.0521 3.77552 75.5744 4.26363C75.0966 4.75175 74.8578 5.41642 74.8578 6.25764C74.8578 7.07809 75.0914 7.73756 75.5588 8.23607C76.0365 8.73457 76.67 8.98382 77.4593 8.98382C77.9267 8.98382 78.3732 8.89554 78.799 8.71899V5.96165Z" fill="#5D6065"/>
</svg>
